%TF.GenerationSoftware,KiCad,Pcbnew,10.0.3*%
%TF.CreationDate,2026-06-12T15:08:48+03:00*%
%TF.ProjectId,shpad,73687061-642e-46b6-9963-61645f706362,rev?*%
%TF.SameCoordinates,Original*%
%TF.FileFunction,Soldermask,Bot*%
%TF.FilePolarity,Negative*%
%FSLAX46Y46*%
G04 Gerber Fmt 4.6, Leading zero omitted, Abs format (unit mm)*
G04 Created by KiCad (PCBNEW 10.0.3) date 2026-06-12 15:08:48*
%MOMM*%
%LPD*%
G01*
G04 APERTURE LIST*
G04 Aperture macros list*
%AMRoundRect*
0 Rectangle with rounded corners*
0 $1 Rounding radius*
0 $2 $3 $4 $5 $6 $7 $8 $9 X,Y pos of 4 corners*
0 Add a 4 corners polygon primitive as box body*
4,1,4,$2,$3,$4,$5,$6,$7,$8,$9,$2,$3,0*
0 Add four circle primitives for the rounded corners*
1,1,$1+$1,$2,$3*
1,1,$1+$1,$4,$5*
1,1,$1+$1,$6,$7*
1,1,$1+$1,$8,$9*
0 Add four rect primitives between the rounded corners*
20,1,$1+$1,$2,$3,$4,$5,0*
20,1,$1+$1,$4,$5,$6,$7,0*
20,1,$1+$1,$6,$7,$8,$9,0*
20,1,$1+$1,$8,$9,$2,$3,0*%
G04 Aperture macros list end*
%ADD10C,1.701800*%
%ADD11C,3.000000*%
%ADD12C,3.987800*%
%ADD13R,3.500000X1.700000*%
%ADD14O,3.600000X1.700000*%
%ADD15O,3.700000X1.700000*%
%ADD16RoundRect,0.170000X0.680000X-0.680000X0.680000X0.680000X-0.680000X0.680000X-0.680000X-0.680000X0*%
%ADD17C,1.700000*%
G04 APERTURE END LIST*
D10*
%TO.C,SW5*%
X64330000Y-108750000D03*
D11*
X61790000Y-113830000D03*
D12*
X59250000Y-108750000D03*
D11*
X55440000Y-111290000D03*
D10*
X54170000Y-108750000D03*
%TD*%
%TO.C,SW6*%
X83580000Y-108750000D03*
D11*
X81040000Y-113830000D03*
D12*
X78500000Y-108750000D03*
D11*
X74690000Y-111290000D03*
D10*
X73420000Y-108750000D03*
%TD*%
%TO.C,SW3*%
X34920000Y-89750000D03*
D11*
X37460000Y-84670000D03*
D12*
X40000000Y-89750000D03*
D11*
X43810000Y-87210000D03*
D10*
X45080000Y-89750000D03*
%TD*%
%TO.C,SW1*%
X73420000Y-89750000D03*
D11*
X75960000Y-84670000D03*
D12*
X78500000Y-89750000D03*
D11*
X82310000Y-87210000D03*
D10*
X83580000Y-89750000D03*
%TD*%
%TO.C,SW4*%
X45330000Y-108750000D03*
D11*
X42790000Y-113830000D03*
D12*
X40250000Y-108750000D03*
D11*
X36440000Y-111290000D03*
D10*
X35170000Y-108750000D03*
%TD*%
D13*
%TO.C,U1*%
X51375000Y-63980000D03*
D14*
X51375000Y-66520000D03*
X51375000Y-69060000D03*
X51375000Y-71600000D03*
X51375000Y-74140000D03*
X51375000Y-76680000D03*
X51375000Y-79220000D03*
X68625000Y-79220000D03*
X68625000Y-76680000D03*
X68625000Y-74140000D03*
D15*
X68625000Y-71600000D03*
X68625000Y-69060000D03*
X68625000Y-66520000D03*
X68625000Y-63980000D03*
%TD*%
D10*
%TO.C,SW2*%
X54170000Y-89500000D03*
D11*
X56710000Y-84420000D03*
D12*
X59250000Y-89500000D03*
D11*
X63060000Y-86960000D03*
D10*
X64330000Y-89500000D03*
%TD*%
D16*
%TO.C,U2*%
X77500000Y-71200000D03*
D17*
X77500000Y-68660000D03*
X77500000Y-66120000D03*
X77500000Y-63580000D03*
%TD*%
M02*
