%TF.GenerationSoftware,KiCad,Pcbnew,10.0.3*%
%TF.CreationDate,2026-06-12T15:08:48+03:00*%
%TF.ProjectId,shpad,73687061-642e-46b6-9963-61645f706362,rev?*%
%TF.SameCoordinates,Original*%
%TF.FileFunction,Copper,L1,Top*%
%TF.FilePolarity,Positive*%
%FSLAX46Y46*%
G04 Gerber Fmt 4.6, Leading zero omitted, Abs format (unit mm)*
G04 Created by KiCad (PCBNEW 10.0.3) date 2026-06-12 15:08:48*
%MOMM*%
%LPD*%
G01*
G04 APERTURE LIST*
G04 Aperture macros list*
%AMRoundRect*
0 Rectangle with rounded corners*
0 $1 Rounding radius*
0 $2 $3 $4 $5 $6 $7 $8 $9 X,Y pos of 4 corners*
0 Add a 4 corners polygon primitive as box body*
4,1,4,$2,$3,$4,$5,$6,$7,$8,$9,$2,$3,0*
0 Add four circle primitives for the rounded corners*
1,1,$1+$1,$2,$3*
1,1,$1+$1,$4,$5*
1,1,$1+$1,$6,$7*
1,1,$1+$1,$8,$9*
0 Add four rect primitives between the rounded corners*
20,1,$1+$1,$2,$3,$4,$5,0*
20,1,$1+$1,$4,$5,$6,$7,0*
20,1,$1+$1,$6,$7,$8,$9,0*
20,1,$1+$1,$8,$9,$2,$3,0*%
G04 Aperture macros list end*
%TA.AperFunction,SMDPad,CuDef*%
%ADD10RoundRect,0.082000X-0.718000X0.328000X-0.718000X-0.328000X0.718000X-0.328000X0.718000X0.328000X0*%
%TD*%
%TA.AperFunction,SMDPad,CuDef*%
%ADD11RoundRect,0.200000X1.075000X1.050000X-1.075000X1.050000X-1.075000X-1.050000X1.075000X-1.050000X0*%
%TD*%
%TA.AperFunction,SMDPad,CuDef*%
%ADD12RoundRect,0.200000X-1.075000X-1.050000X1.075000X-1.050000X1.075000X1.050000X-1.075000X1.050000X0*%
%TD*%
%TA.AperFunction,ComponentPad*%
%ADD13R,3.500000X1.700000*%
%TD*%
%TA.AperFunction,ComponentPad*%
%ADD14O,3.600000X1.700000*%
%TD*%
%TA.AperFunction,ComponentPad*%
%ADD15O,3.700000X1.700000*%
%TD*%
%TA.AperFunction,ComponentPad*%
%ADD16RoundRect,0.170000X0.680000X-0.680000X0.680000X0.680000X-0.680000X0.680000X-0.680000X-0.680000X0*%
%TD*%
%TA.AperFunction,ComponentPad*%
%ADD17C,1.700000*%
%TD*%
%TA.AperFunction,ViaPad*%
%ADD18C,0.600000*%
%TD*%
%TA.AperFunction,Conductor*%
%ADD19C,0.200000*%
%TD*%
G04 APERTURE END LIST*
D10*
%TO.P,D4,1,VDD_1*%
%TO.N,Net-(D1-VDD)*%
X86499998Y-68650000D03*
%TO.P,D4,2,DOUT_2*%
%TO.N,unconnected-(D4-DOUT-Pad2)*%
X86499998Y-70150000D03*
%TO.P,D4,3,VSS_3*%
%TO.N,GND*%
X81299998Y-70150000D03*
%TO.P,D4,4,DIN_4*%
%TO.N,Net-(D3-DOUT)*%
X81299998Y-68650000D03*
%TD*%
D11*
%TO.P,SW5,1,1_1*%
%TO.N,Net-(U1-PA02_A0_D0)*%
X52165000Y-111290000D03*
%TO.P,SW5,2,2_2*%
%TO.N,GND*%
X65092000Y-113830000D03*
%TD*%
%TO.P,SW6,1,1_1*%
%TO.N,Net-(U1-PA4_A1_D1)*%
X71415000Y-111290000D03*
%TO.P,SW6,2,2_2*%
%TO.N,GND*%
X84342000Y-113830000D03*
%TD*%
D12*
%TO.P,SW3,1,1_1*%
%TO.N,Net-(U1-PA7_A8_D8_SCK)*%
X47085000Y-87210000D03*
%TO.P,SW3,2,2_2*%
%TO.N,GND*%
X34158000Y-84670000D03*
%TD*%
%TO.P,SW1,1,1_1*%
%TO.N,Net-(U1-PA6_A10_D10_MOSI)*%
X85585000Y-87210000D03*
%TO.P,SW1,2,2_2*%
%TO.N,GND*%
X72658000Y-84670000D03*
%TD*%
D11*
%TO.P,SW4,1,1_1*%
%TO.N,Net-(U1-PB09_A7_D7_RX)*%
X33165000Y-111290000D03*
%TO.P,SW4,2,2_2*%
%TO.N,GND*%
X46092000Y-113830000D03*
%TD*%
D13*
%TO.P,U1,1,PA02_A0_D0_1*%
%TO.N,Net-(U1-PA02_A0_D0)*%
X51375000Y-63980000D03*
D14*
%TO.P,U1,2,PA4_A1_D1_2*%
%TO.N,Net-(U1-PA4_A1_D1)*%
X51375000Y-66520000D03*
%TO.P,U1,3,PA10_A2_D2_3*%
%TO.N,Net-(D1-DIN)*%
X51375000Y-69060000D03*
%TO.P,U1,4,PA11_A3_D3_4*%
%TO.N,unconnected-(U1-PA11_A3_D3-Pad4)*%
X51375000Y-71600000D03*
%TO.P,U1,5,PA8_A4_D4_SDA_5*%
%TO.N,Net-(U1-PA8_A4_D4_SDA)*%
X51375000Y-74140000D03*
%TO.P,U1,6,PA9_A5_D5_SCL_6*%
%TO.N,Net-(U1-PA9_A5_D5_SCL)*%
X51375000Y-76680000D03*
%TO.P,U1,7,PB08_A6_D6_TX_7*%
%TO.N,unconnected-(U1-PB08_A6_D6_TX-Pad7)*%
X51375000Y-79220000D03*
%TO.P,U1,8,PB09_A7_D7_RX_8*%
%TO.N,Net-(U1-PB09_A7_D7_RX)*%
X68625000Y-79220000D03*
%TO.P,U1,9,PA7_A8_D8_SCK_9*%
%TO.N,Net-(U1-PA7_A8_D8_SCK)*%
X68625000Y-76680000D03*
%TO.P,U1,10,PA5_A9_D9_MISO_10*%
%TO.N,Net-(U1-PA5_A9_D9_MISO)*%
X68625000Y-74140000D03*
D15*
%TO.P,U1,11,PA6_A10_D10_MOSI_11*%
%TO.N,Net-(U1-PA6_A10_D10_MOSI)*%
X68625000Y-71600000D03*
%TO.P,U1,12,3V3_12*%
%TO.N,Net-(U1-3V3)*%
X68625000Y-69060000D03*
%TO.P,U1,13,GND_13*%
%TO.N,GND*%
X68625000Y-66520000D03*
%TO.P,U1,14,5V_14*%
%TO.N,Net-(D1-VDD)*%
X68625000Y-63980000D03*
%TD*%
D12*
%TO.P,SW2,1,1_1*%
%TO.N,Net-(U1-PA5_A9_D9_MISO)*%
X66335000Y-86960000D03*
%TO.P,SW2,2,2_2*%
%TO.N,GND*%
X53408000Y-84420000D03*
%TD*%
D10*
%TO.P,D1,1,VDD_1*%
%TO.N,Net-(D1-VDD)*%
X38187498Y-63450000D03*
%TO.P,D1,2,DOUT_2*%
%TO.N,Net-(D1-DOUT)*%
X38187498Y-64950000D03*
%TO.P,D1,3,VSS_3*%
%TO.N,GND*%
X32987498Y-64950000D03*
%TO.P,D1,4,DIN_4*%
%TO.N,Net-(D1-DIN)*%
X32987498Y-63450000D03*
%TD*%
D16*
%TO.P,U2,1,GND_1*%
%TO.N,GND*%
X77500000Y-71200000D03*
D17*
%TO.P,U2,2,VCC_2*%
%TO.N,Net-(U1-3V3)*%
X77500000Y-68660000D03*
%TO.P,U2,3,SCL_3*%
%TO.N,Net-(U1-PA9_A5_D5_SCL)*%
X77500000Y-66120000D03*
%TO.P,U2,4,SDA_4*%
%TO.N,Net-(U1-PA8_A4_D4_SDA)*%
X77500000Y-63580000D03*
%TD*%
D10*
%TO.P,D3,1,VDD_1*%
%TO.N,Net-(D1-VDD)*%
X86499998Y-63600000D03*
%TO.P,D3,2,DOUT_2*%
%TO.N,Net-(D3-DOUT)*%
X86499998Y-65100000D03*
%TO.P,D3,3,VSS_3*%
%TO.N,GND*%
X81299998Y-65100000D03*
%TO.P,D3,4,DIN_4*%
%TO.N,Net-(D2-DOUT)*%
X81299998Y-63600000D03*
%TD*%
%TO.P,D2,1,VDD_1*%
%TO.N,Net-(D1-VDD)*%
X38187498Y-68500000D03*
%TO.P,D2,2,DOUT_2*%
%TO.N,Net-(D2-DOUT)*%
X38187498Y-70000000D03*
%TO.P,D2,3,VSS_3*%
%TO.N,GND*%
X32987498Y-70000000D03*
%TO.P,D2,4,DIN_4*%
%TO.N,Net-(D1-DOUT)*%
X32987498Y-68500000D03*
%TD*%
D18*
%TO.N,GND*%
X48400000Y-73000000D03*
X54500000Y-72500000D03*
X72039938Y-66460062D03*
%TO.N,Net-(U1-PA4_A1_D1)*%
X67750000Y-107750000D03*
%TO.N,Net-(U1-PA7_A8_D8_SCK)*%
X59239735Y-77739735D03*
%TO.N,Net-(U1-PA6_A10_D10_MOSI)*%
X73750000Y-74750000D03*
%TO.N,Net-(D1-DIN)*%
X42000000Y-67000000D03*
X48400000Y-69000000D03*
X31000000Y-64000000D03*
%TO.N,Net-(U1-PA8_A4_D4_SDA)*%
X66000000Y-66500000D03*
X58500000Y-74000000D03*
X63000000Y-72000000D03*
X66000000Y-64770000D03*
%TO.N,Net-(U1-PA9_A5_D5_SCL)*%
X65199997Y-66500000D03*
X65296073Y-64389879D03*
X62434313Y-71434313D03*
X59500000Y-73400000D03*
%TO.N,Net-(U1-3V3)*%
X74500000Y-68500000D03*
%TO.N,Net-(D1-VDD)*%
X80148447Y-61600000D03*
X65934441Y-62629999D03*
X42901471Y-64401471D03*
X44500000Y-64500000D03*
%TD*%
%TO.N,Net-(U1-PA02_A0_D0)*%
D19*
X51375000Y-63980000D02*
X51338654Y-63980000D01*
%TO.N,GND*%
X68711346Y-66520000D02*
X67625000Y-66520000D01*
X78650000Y-67749998D02*
X78650000Y-68183654D01*
X77500000Y-71200000D02*
X78650000Y-70050000D01*
X66750000Y-99250000D02*
X69000000Y-97000000D01*
X54500000Y-72500000D02*
X61100000Y-65900000D01*
X46092000Y-113830000D02*
X60672000Y-99250000D01*
X32987498Y-70000000D02*
X33000000Y-70012502D01*
X82379100Y-107629100D02*
X69000000Y-94250000D01*
X60100000Y-77728000D02*
X60100000Y-70751468D01*
X72849876Y-67270000D02*
X72039938Y-66460062D01*
X77500000Y-71200000D02*
X77500000Y-72000000D01*
X60672000Y-99250000D02*
X66750000Y-99250000D01*
X81299998Y-70150000D02*
X78550000Y-70150000D01*
X34500000Y-73000000D02*
X48400000Y-73000000D01*
X69000000Y-94250000D02*
X69000000Y-88328000D01*
X69000000Y-97000000D02*
X69000000Y-94250000D01*
X82379100Y-111867100D02*
X82379100Y-107629100D01*
X64951468Y-65900000D02*
X67005000Y-65900000D01*
X69000000Y-88328000D02*
X72658000Y-84670000D01*
X32987498Y-70000000D02*
X32898998Y-70000000D01*
X78650000Y-68183654D02*
X77736346Y-67270000D01*
X72658000Y-70466654D02*
X68711346Y-66520000D01*
X34158000Y-84670000D02*
X45828000Y-73000000D01*
X78550000Y-70150000D02*
X77500000Y-71200000D01*
X33000000Y-71500000D02*
X34500000Y-73000000D01*
X84342000Y-113830000D02*
X82379100Y-111867100D01*
X77736346Y-67270000D02*
X72849876Y-67270000D01*
X81299998Y-65100000D02*
X78650000Y-67749998D01*
X33000000Y-70012502D02*
X33000000Y-71500000D01*
X31887498Y-68988500D02*
X31887498Y-66050000D01*
X61100000Y-65900000D02*
X67005000Y-65900000D01*
X78650000Y-70050000D02*
X78650000Y-68183654D01*
X67005000Y-65900000D02*
X67625000Y-66520000D01*
X60100000Y-70751468D02*
X64951468Y-65900000D01*
X45828000Y-73000000D02*
X48400000Y-73000000D01*
X66750000Y-112172000D02*
X66750000Y-99250000D01*
X72658000Y-84670000D02*
X72658000Y-70466654D01*
X65092000Y-113830000D02*
X66750000Y-112172000D01*
X32898998Y-70000000D02*
X31887498Y-68988500D01*
X53408000Y-84420000D02*
X60100000Y-77728000D01*
X31887498Y-66050000D02*
X32987498Y-64950000D01*
%TO.N,Net-(U1-PA4_A1_D1)*%
X71415000Y-111290000D02*
X67875000Y-107750000D01*
X67875000Y-107750000D02*
X67750000Y-107750000D01*
%TO.N,Net-(U1-PA7_A8_D8_SCK)*%
X56555265Y-77739735D02*
X59239735Y-77739735D01*
X47085000Y-87210000D02*
X56555265Y-77739735D01*
%TO.N,Net-(U1-PA6_A10_D10_MOSI)*%
X68661346Y-71600000D02*
X67625000Y-71600000D01*
X85585000Y-86585000D02*
X73750000Y-74750000D01*
X85585000Y-87210000D02*
X85585000Y-86585000D01*
%TO.N,Net-(U1-PB09_A7_D7_RX)*%
X33165000Y-111290000D02*
X33165000Y-108806671D01*
X68000000Y-96250000D02*
X68000000Y-79595000D01*
X65750000Y-98500000D02*
X68000000Y-96250000D01*
X33165000Y-108806671D02*
X43471671Y-98500000D01*
X68000000Y-79595000D02*
X67625000Y-79220000D01*
X43471671Y-98500000D02*
X65750000Y-98500000D01*
%TO.N,Net-(D1-DIN)*%
X42000000Y-67000000D02*
X46400000Y-67000000D01*
X51375000Y-69060000D02*
X50660000Y-69060000D01*
X32987498Y-63450000D02*
X31550000Y-63450000D01*
X46400000Y-67000000D02*
X48400000Y-69000000D01*
X31550000Y-63450000D02*
X31000000Y-64000000D01*
%TO.N,Net-(U1-PA8_A4_D4_SDA)*%
X63000000Y-72000000D02*
X66000000Y-69000000D01*
X66000000Y-64770000D02*
X66000000Y-63978654D01*
X66000000Y-69000000D02*
X66000000Y-66500000D01*
X51375000Y-74140000D02*
X51515000Y-74000000D01*
X51515000Y-74000000D02*
X58500000Y-74000000D01*
X67148654Y-62830000D02*
X76750000Y-62830000D01*
X76750000Y-62830000D02*
X77500000Y-63580000D01*
X66000000Y-63978654D02*
X67148654Y-62830000D01*
%TO.N,Net-(U1-PA9_A5_D5_SCL)*%
X65199997Y-68668629D02*
X65199997Y-66500000D01*
X78650000Y-63103654D02*
X78650000Y-64970000D01*
X62434313Y-71434313D02*
X65199997Y-68668629D01*
X65296073Y-64389879D02*
X65296073Y-64116895D01*
X52375000Y-76680000D02*
X56668529Y-76680000D01*
X78650000Y-64970000D02*
X77500000Y-66120000D01*
X65296073Y-64116895D02*
X66982969Y-62430000D01*
X77976346Y-62430000D02*
X78650000Y-63103654D01*
X59500000Y-73848529D02*
X59500000Y-73400000D01*
X66982969Y-62430000D02*
X77976346Y-62430000D01*
X56668529Y-76680000D02*
X59500000Y-73848529D01*
%TO.N,Net-(U1-PA5_A9_D9_MISO)*%
X66335000Y-86960000D02*
X66335000Y-75430000D01*
X66335000Y-75430000D02*
X67625000Y-74140000D01*
%TO.N,Net-(U1-3V3)*%
X74660000Y-68660000D02*
X74500000Y-68500000D01*
X77500000Y-68660000D02*
X74660000Y-68660000D01*
%TO.N,Net-(D1-VDD)*%
X86499998Y-68650000D02*
X87599998Y-67550000D01*
X42841442Y-64461500D02*
X42901471Y-64401471D01*
X38275998Y-63450000D02*
X39287498Y-64461500D01*
X39287498Y-67400000D02*
X38187498Y-68500000D01*
X39287498Y-64461500D02*
X42841442Y-64461500D01*
X46370001Y-62629999D02*
X65934441Y-62629999D01*
X39287498Y-64461500D02*
X39287498Y-67400000D01*
X44500000Y-64500000D02*
X46370001Y-62629999D01*
X85600000Y-61600000D02*
X80148447Y-61600000D01*
X86500000Y-62500000D02*
X85600000Y-61600000D01*
X86499998Y-63600000D02*
X86499998Y-62500002D01*
X38187498Y-63450000D02*
X38275998Y-63450000D01*
X87299998Y-63600000D02*
X86499998Y-63600000D01*
X86499998Y-62500002D02*
X86500000Y-62500000D01*
X87599998Y-67550000D02*
X87599998Y-63900000D01*
X87599998Y-63900000D02*
X87299998Y-63600000D01*
%TO.N,Net-(D3-DOUT)*%
X86000000Y-67000000D02*
X82000000Y-67000000D01*
X81299998Y-67700002D02*
X81299998Y-68650000D01*
X86500000Y-66500000D02*
X86000000Y-67000000D01*
X86499998Y-65100000D02*
X86499998Y-66499998D01*
X82000000Y-67000000D02*
X81299998Y-67700002D01*
X86499998Y-66499998D02*
X86500000Y-66500000D01*
%TO.N,Net-(D1-DOUT)*%
X37000000Y-67000000D02*
X38187498Y-65812502D01*
X33000000Y-68487498D02*
X33000000Y-67500000D01*
X32987498Y-68500000D02*
X33000000Y-68487498D01*
X33500000Y-67000000D02*
X37000000Y-67000000D01*
X33000000Y-67500000D02*
X33500000Y-67000000D01*
X38187498Y-65812502D02*
X38187498Y-64950000D01*
%TO.N,Net-(D2-DOUT)*%
X79729998Y-62030000D02*
X81299998Y-63600000D01*
X46121471Y-62030000D02*
X79729998Y-62030000D01*
X38987498Y-70000000D02*
X41400000Y-67587498D01*
X41400000Y-67587498D02*
X41400000Y-66751471D01*
X38187498Y-70000000D02*
X38987498Y-70000000D01*
X41400000Y-66751471D02*
X46121471Y-62030000D01*
%TD*%
M02*
