%TF.GenerationSoftware,KiCad,Pcbnew,10.0.3*%
%TF.CreationDate,2026-06-12T15:08:48+03:00*%
%TF.ProjectId,shpad,73687061-642e-46b6-9963-61645f706362,rev?*%
%TF.SameCoordinates,Original*%
%TF.FileFunction,Soldermask,Top*%
%TF.FilePolarity,Negative*%
%FSLAX46Y46*%
G04 Gerber Fmt 4.6, Leading zero omitted, Abs format (unit mm)*
G04 Created by KiCad (PCBNEW 10.0.3) date 2026-06-12 15:08:48*
%MOMM*%
%LPD*%
G01*
G04 APERTURE LIST*
G04 Aperture macros list*
%AMRoundRect*
0 Rectangle with rounded corners*
0 $1 Rounding radius*
0 $2 $3 $4 $5 $6 $7 $8 $9 X,Y pos of 4 corners*
0 Add a 4 corners polygon primitive as box body*
4,1,4,$2,$3,$4,$5,$6,$7,$8,$9,$2,$3,0*
0 Add four circle primitives for the rounded corners*
1,1,$1+$1,$2,$3*
1,1,$1+$1,$4,$5*
1,1,$1+$1,$6,$7*
1,1,$1+$1,$8,$9*
0 Add four rect primitives between the rounded corners*
20,1,$1+$1,$2,$3,$4,$5,0*
20,1,$1+$1,$4,$5,$6,$7,0*
20,1,$1+$1,$6,$7,$8,$9,0*
20,1,$1+$1,$8,$9,$2,$3,0*%
G04 Aperture macros list end*
%ADD10RoundRect,0.082000X-0.718000X0.328000X-0.718000X-0.328000X0.718000X-0.328000X0.718000X0.328000X0*%
%ADD11C,1.701800*%
%ADD12C,3.000000*%
%ADD13C,3.987800*%
%ADD14RoundRect,0.200000X1.075000X1.050000X-1.075000X1.050000X-1.075000X-1.050000X1.075000X-1.050000X0*%
%ADD15RoundRect,0.200000X-1.075000X-1.050000X1.075000X-1.050000X1.075000X1.050000X-1.075000X1.050000X0*%
%ADD16R,3.500000X1.700000*%
%ADD17O,3.600000X1.700000*%
%ADD18O,3.700000X1.700000*%
%ADD19RoundRect,0.170000X0.680000X-0.680000X0.680000X0.680000X-0.680000X0.680000X-0.680000X-0.680000X0*%
%ADD20C,1.700000*%
G04 APERTURE END LIST*
D10*
%TO.C,D4*%
X86499998Y-68650000D03*
X86499998Y-70150000D03*
X81299998Y-70150000D03*
X81299998Y-68650000D03*
%TD*%
D11*
%TO.C,SW5*%
X64330000Y-108750000D03*
D12*
X61790000Y-113830000D03*
D13*
X59250000Y-108750000D03*
D12*
X55440000Y-111290000D03*
D11*
X54170000Y-108750000D03*
D14*
X52165000Y-111290000D03*
X65092000Y-113830000D03*
%TD*%
D11*
%TO.C,SW6*%
X83580000Y-108750000D03*
D12*
X81040000Y-113830000D03*
D13*
X78500000Y-108750000D03*
D12*
X74690000Y-111290000D03*
D11*
X73420000Y-108750000D03*
D14*
X71415000Y-111290000D03*
X84342000Y-113830000D03*
%TD*%
D11*
%TO.C,SW3*%
X34920000Y-89750000D03*
D12*
X37460000Y-84670000D03*
D13*
X40000000Y-89750000D03*
D12*
X43810000Y-87210000D03*
D11*
X45080000Y-89750000D03*
D15*
X47085000Y-87210000D03*
X34158000Y-84670000D03*
%TD*%
D11*
%TO.C,SW1*%
X73420000Y-89750000D03*
D12*
X75960000Y-84670000D03*
D13*
X78500000Y-89750000D03*
D12*
X82310000Y-87210000D03*
D11*
X83580000Y-89750000D03*
D15*
X85585000Y-87210000D03*
X72658000Y-84670000D03*
%TD*%
D11*
%TO.C,SW4*%
X45330000Y-108750000D03*
D12*
X42790000Y-113830000D03*
D13*
X40250000Y-108750000D03*
D12*
X36440000Y-111290000D03*
D11*
X35170000Y-108750000D03*
D14*
X33165000Y-111290000D03*
X46092000Y-113830000D03*
%TD*%
D16*
%TO.C,U1*%
X51375000Y-63980000D03*
D17*
X51375000Y-66520000D03*
X51375000Y-69060000D03*
X51375000Y-71600000D03*
X51375000Y-74140000D03*
X51375000Y-76680000D03*
X51375000Y-79220000D03*
X68625000Y-79220000D03*
X68625000Y-76680000D03*
X68625000Y-74140000D03*
D18*
X68625000Y-71600000D03*
X68625000Y-69060000D03*
X68625000Y-66520000D03*
X68625000Y-63980000D03*
%TD*%
D11*
%TO.C,SW2*%
X54170000Y-89500000D03*
D12*
X56710000Y-84420000D03*
D13*
X59250000Y-89500000D03*
D12*
X63060000Y-86960000D03*
D11*
X64330000Y-89500000D03*
D15*
X66335000Y-86960000D03*
X53408000Y-84420000D03*
%TD*%
D10*
%TO.C,D1*%
X38187498Y-63450000D03*
X38187498Y-64950000D03*
X32987498Y-64950000D03*
X32987498Y-63450000D03*
%TD*%
D19*
%TO.C,U2*%
X77500000Y-71200000D03*
D20*
X77500000Y-68660000D03*
X77500000Y-66120000D03*
X77500000Y-63580000D03*
%TD*%
D10*
%TO.C,D3*%
X86499998Y-63600000D03*
X86499998Y-65100000D03*
X81299998Y-65100000D03*
X81299998Y-63600000D03*
%TD*%
%TO.C,D2*%
X38187498Y-68500000D03*
X38187498Y-70000000D03*
X32987498Y-70000000D03*
X32987498Y-68500000D03*
%TD*%
M02*
