%TF.GenerationSoftware,KiCad,Pcbnew,10.0.3*%
%TF.CreationDate,2026-06-12T15:08:48+03:00*%
%TF.ProjectId,shpad,73687061-642e-46b6-9963-61645f706362,rev?*%
%TF.SameCoordinates,Original*%
%TF.FileFunction,Profile,NP*%
%FSLAX46Y46*%
G04 Gerber Fmt 4.6, Leading zero omitted, Abs format (unit mm)*
G04 Created by KiCad (PCBNEW 10.0.3) date 2026-06-12 15:08:48*
%MOMM*%
%LPD*%
G01*
G04 APERTURE LIST*
%TA.AperFunction,Profile*%
%ADD10C,0.050000*%
%TD*%
%TA.AperFunction,Profile*%
%ADD11C,0.100000*%
%TD*%
G04 APERTURE END LIST*
D10*
X29000000Y-60750000D02*
X89000000Y-60750000D01*
X89000000Y-119250000D01*
X29000000Y-119250000D01*
X29000000Y-60750000D01*
%TO.C,D4*%
D11*
X85599997Y-70102842D02*
X85599997Y-68697158D01*
X84694450Y-67900001D02*
X83105545Y-67900001D01*
X83105546Y-70900000D02*
X84694450Y-70900000D01*
X82199999Y-68697158D02*
X82199999Y-70102842D01*
X85599997Y-68697158D02*
G75*
G02*
X85649482Y-68480280I499990J2D01*
G01*
X84946709Y-67831701D02*
G75*
G02*
X85649482Y-68480280I252258J-431701D01*
G01*
X85649482Y-70319720D02*
G75*
G02*
X85599997Y-70102843I450505J216876D01*
G01*
X85649482Y-70319720D02*
G75*
G02*
X84946709Y-70968297I-450515J-216877D01*
G01*
X84694450Y-70900000D02*
G75*
G02*
X84946708Y-70968299I-3J-500009D01*
G01*
X84946709Y-67831701D02*
G75*
G02*
X84694451Y-67900000I-252261J431710D01*
G01*
X82853287Y-70968299D02*
G75*
G02*
X83105546Y-70900000I252262J-431713D01*
G01*
X83105545Y-67900001D02*
G75*
G02*
X82853287Y-67831701I4J500009D01*
G01*
X82150514Y-68480280D02*
G75*
G02*
X82853287Y-67831701I450515J216878D01*
G01*
X82150514Y-68480280D02*
G75*
G02*
X82199992Y-68697157I-450515J-216862D01*
G01*
X82853287Y-70968299D02*
G75*
G02*
X82150514Y-70319719I-252259J431700D01*
G01*
X82199999Y-70102842D02*
G75*
G02*
X82150514Y-70319720I-500000J0D01*
G01*
%TO.C,D1*%
X33887499Y-63497158D02*
X33887499Y-64902842D01*
X34793046Y-65700000D02*
X36381950Y-65700000D01*
X36381950Y-62700001D02*
X34793045Y-62700001D01*
X37287497Y-64902842D02*
X37287497Y-63497158D01*
X33838014Y-63280280D02*
G75*
G02*
X33887482Y-63497157I-450615J-216862D01*
G01*
X33838014Y-63280280D02*
G75*
G02*
X34540787Y-62631701I450515J216878D01*
G01*
X33887499Y-64902842D02*
G75*
G02*
X33838014Y-65119720I-500000J0D01*
G01*
X34540787Y-65768299D02*
G75*
G02*
X33838019Y-65119721I-252258J431697D01*
G01*
X34540787Y-65768299D02*
G75*
G02*
X34793046Y-65700000I252262J-431713D01*
G01*
X34793045Y-62700001D02*
G75*
G02*
X34540787Y-62631701I4J500009D01*
G01*
X36381950Y-65700000D02*
G75*
G02*
X36634208Y-65768299I-3J-500009D01*
G01*
X36634209Y-62631701D02*
G75*
G02*
X36381951Y-62700000I-252261J431710D01*
G01*
X36634209Y-62631701D02*
G75*
G02*
X37336982Y-63280280I252258J-431701D01*
G01*
X37287497Y-63497158D02*
G75*
G02*
X37336982Y-63280280I499990J2D01*
G01*
X37336982Y-65119720D02*
G75*
G02*
X36634209Y-65768297I-450515J-216877D01*
G01*
X37336982Y-65119720D02*
G75*
G02*
X37287497Y-64902843I450505J216876D01*
G01*
%TO.C,D3*%
X82199999Y-63647158D02*
X82199999Y-65052842D01*
X83105546Y-65850000D02*
X84694450Y-65850000D01*
X84694450Y-62850001D02*
X83105545Y-62850001D01*
X85599997Y-65052842D02*
X85599997Y-63647158D01*
X82150514Y-63430280D02*
G75*
G02*
X82199982Y-63647157I-450615J-216862D01*
G01*
X82150514Y-63430280D02*
G75*
G02*
X82853287Y-62781701I450515J216878D01*
G01*
X82199999Y-65052842D02*
G75*
G02*
X82150514Y-65269720I-500000J0D01*
G01*
X82853287Y-65918299D02*
G75*
G02*
X82150519Y-65269721I-252258J431697D01*
G01*
X82853287Y-65918299D02*
G75*
G02*
X83105546Y-65850000I252262J-431713D01*
G01*
X83105545Y-62850001D02*
G75*
G02*
X82853287Y-62781701I4J500009D01*
G01*
X84694450Y-65850000D02*
G75*
G02*
X84946708Y-65918299I-3J-500009D01*
G01*
X84946709Y-62781701D02*
G75*
G02*
X84694451Y-62850000I-252261J431710D01*
G01*
X84946709Y-62781701D02*
G75*
G02*
X85649482Y-63430280I252258J-431701D01*
G01*
X85599997Y-63647158D02*
G75*
G02*
X85649482Y-63430280I499990J2D01*
G01*
X85649482Y-65269720D02*
G75*
G02*
X84946709Y-65918297I-450515J-216877D01*
G01*
X85649482Y-65269720D02*
G75*
G02*
X85599997Y-65052843I450505J216876D01*
G01*
%TO.C,D2*%
X33887499Y-68547158D02*
X33887499Y-69952842D01*
X34793046Y-70750000D02*
X36381950Y-70750000D01*
X36381950Y-67750001D02*
X34793045Y-67750001D01*
X37287497Y-69952842D02*
X37287497Y-68547158D01*
X33838014Y-68330280D02*
G75*
G02*
X33887482Y-68547157I-450615J-216862D01*
G01*
X33838014Y-68330280D02*
G75*
G02*
X34540787Y-67681701I450515J216878D01*
G01*
X33887499Y-69952842D02*
G75*
G02*
X33838014Y-70169720I-500000J0D01*
G01*
X34540787Y-70818299D02*
G75*
G02*
X33838019Y-70169721I-252258J431697D01*
G01*
X34540787Y-70818299D02*
G75*
G02*
X34793046Y-70750000I252262J-431713D01*
G01*
X34793045Y-67750001D02*
G75*
G02*
X34540787Y-67681701I4J500009D01*
G01*
X36381950Y-70750000D02*
G75*
G02*
X36634208Y-70818299I-3J-500009D01*
G01*
X36634209Y-67681701D02*
G75*
G02*
X36381951Y-67750000I-252261J431710D01*
G01*
X36634209Y-67681701D02*
G75*
G02*
X37336982Y-68330280I252258J-431701D01*
G01*
X37287497Y-68547158D02*
G75*
G02*
X37336982Y-68330280I499990J2D01*
G01*
X37336982Y-70169720D02*
G75*
G02*
X36634209Y-70818297I-450515J-216877D01*
G01*
X37336982Y-70169720D02*
G75*
G02*
X37287497Y-69952843I450505J216876D01*
G01*
%TD*%
M02*
