%TF.GenerationSoftware,KiCad,Pcbnew,10.0.3*%
%TF.CreationDate,2026-06-12T15:08:48+03:00*%
%TF.ProjectId,shpad,73687061-642e-46b6-9963-61645f706362,rev?*%
%TF.SameCoordinates,Original*%
%TF.FileFunction,Legend,Top*%
%TF.FilePolarity,Positive*%
%FSLAX46Y46*%
G04 Gerber Fmt 4.6, Leading zero omitted, Abs format (unit mm)*
G04 Created by KiCad (PCBNEW 10.0.3) date 2026-06-12 15:08:48*
%MOMM*%
%LPD*%
G01*
G04 APERTURE LIST*
%ADD10C,0.100000*%
%ADD11C,0.101600*%
%ADD12C,0.150000*%
%ADD13C,0.127000*%
%ADD14C,0.120000*%
%ADD15C,0.254000*%
%ADD16C,0.025400*%
%ADD17C,0.000000*%
G04 APERTURE END LIST*
D10*
X71208646Y-76671371D02*
X71208646Y-76071371D01*
X71208646Y-76071371D02*
X71351503Y-76071371D01*
X71351503Y-76071371D02*
X71437217Y-76099942D01*
X71437217Y-76099942D02*
X71494360Y-76157085D01*
X71494360Y-76157085D02*
X71522931Y-76214228D01*
X71522931Y-76214228D02*
X71551503Y-76328514D01*
X71551503Y-76328514D02*
X71551503Y-76414228D01*
X71551503Y-76414228D02*
X71522931Y-76528514D01*
X71522931Y-76528514D02*
X71494360Y-76585657D01*
X71494360Y-76585657D02*
X71437217Y-76642800D01*
X71437217Y-76642800D02*
X71351503Y-76671371D01*
X71351503Y-76671371D02*
X71208646Y-76671371D01*
X72037217Y-76642800D02*
X71980074Y-76671371D01*
X71980074Y-76671371D02*
X71865789Y-76671371D01*
X71865789Y-76671371D02*
X71808646Y-76642800D01*
X71808646Y-76642800D02*
X71780074Y-76585657D01*
X71780074Y-76585657D02*
X71780074Y-76357085D01*
X71780074Y-76357085D02*
X71808646Y-76299942D01*
X71808646Y-76299942D02*
X71865789Y-76271371D01*
X71865789Y-76271371D02*
X71980074Y-76271371D01*
X71980074Y-76271371D02*
X72037217Y-76299942D01*
X72037217Y-76299942D02*
X72065789Y-76357085D01*
X72065789Y-76357085D02*
X72065789Y-76414228D01*
X72065789Y-76414228D02*
X71780074Y-76471371D01*
X72294360Y-76642800D02*
X72351503Y-76671371D01*
X72351503Y-76671371D02*
X72465789Y-76671371D01*
X72465789Y-76671371D02*
X72522932Y-76642800D01*
X72522932Y-76642800D02*
X72551503Y-76585657D01*
X72551503Y-76585657D02*
X72551503Y-76557085D01*
X72551503Y-76557085D02*
X72522932Y-76499942D01*
X72522932Y-76499942D02*
X72465789Y-76471371D01*
X72465789Y-76471371D02*
X72380075Y-76471371D01*
X72380075Y-76471371D02*
X72322932Y-76442800D01*
X72322932Y-76442800D02*
X72294360Y-76385657D01*
X72294360Y-76385657D02*
X72294360Y-76357085D01*
X72294360Y-76357085D02*
X72322932Y-76299942D01*
X72322932Y-76299942D02*
X72380075Y-76271371D01*
X72380075Y-76271371D02*
X72465789Y-76271371D01*
X72465789Y-76271371D02*
X72522932Y-76299942D01*
X72808646Y-76671371D02*
X72808646Y-76271371D01*
X72808646Y-76071371D02*
X72780074Y-76099942D01*
X72780074Y-76099942D02*
X72808646Y-76128514D01*
X72808646Y-76128514D02*
X72837217Y-76099942D01*
X72837217Y-76099942D02*
X72808646Y-76071371D01*
X72808646Y-76071371D02*
X72808646Y-76128514D01*
X73351503Y-76271371D02*
X73351503Y-76757085D01*
X73351503Y-76757085D02*
X73322931Y-76814228D01*
X73322931Y-76814228D02*
X73294360Y-76842800D01*
X73294360Y-76842800D02*
X73237217Y-76871371D01*
X73237217Y-76871371D02*
X73151503Y-76871371D01*
X73151503Y-76871371D02*
X73094360Y-76842800D01*
X73351503Y-76642800D02*
X73294360Y-76671371D01*
X73294360Y-76671371D02*
X73180074Y-76671371D01*
X73180074Y-76671371D02*
X73122931Y-76642800D01*
X73122931Y-76642800D02*
X73094360Y-76614228D01*
X73094360Y-76614228D02*
X73065788Y-76557085D01*
X73065788Y-76557085D02*
X73065788Y-76385657D01*
X73065788Y-76385657D02*
X73094360Y-76328514D01*
X73094360Y-76328514D02*
X73122931Y-76299942D01*
X73122931Y-76299942D02*
X73180074Y-76271371D01*
X73180074Y-76271371D02*
X73294360Y-76271371D01*
X73294360Y-76271371D02*
X73351503Y-76299942D01*
X73637217Y-76271371D02*
X73637217Y-76671371D01*
X73637217Y-76328514D02*
X73665788Y-76299942D01*
X73665788Y-76299942D02*
X73722931Y-76271371D01*
X73722931Y-76271371D02*
X73808645Y-76271371D01*
X73808645Y-76271371D02*
X73865788Y-76299942D01*
X73865788Y-76299942D02*
X73894360Y-76357085D01*
X73894360Y-76357085D02*
X73894360Y-76671371D01*
X74408645Y-76642800D02*
X74351502Y-76671371D01*
X74351502Y-76671371D02*
X74237217Y-76671371D01*
X74237217Y-76671371D02*
X74180074Y-76642800D01*
X74180074Y-76642800D02*
X74151502Y-76585657D01*
X74151502Y-76585657D02*
X74151502Y-76357085D01*
X74151502Y-76357085D02*
X74180074Y-76299942D01*
X74180074Y-76299942D02*
X74237217Y-76271371D01*
X74237217Y-76271371D02*
X74351502Y-76271371D01*
X74351502Y-76271371D02*
X74408645Y-76299942D01*
X74408645Y-76299942D02*
X74437217Y-76357085D01*
X74437217Y-76357085D02*
X74437217Y-76414228D01*
X74437217Y-76414228D02*
X74151502Y-76471371D01*
X74951503Y-76671371D02*
X74951503Y-76071371D01*
X74951503Y-76642800D02*
X74894360Y-76671371D01*
X74894360Y-76671371D02*
X74780074Y-76671371D01*
X74780074Y-76671371D02*
X74722931Y-76642800D01*
X74722931Y-76642800D02*
X74694360Y-76614228D01*
X74694360Y-76614228D02*
X74665788Y-76557085D01*
X74665788Y-76557085D02*
X74665788Y-76385657D01*
X74665788Y-76385657D02*
X74694360Y-76328514D01*
X74694360Y-76328514D02*
X74722931Y-76299942D01*
X74722931Y-76299942D02*
X74780074Y-76271371D01*
X74780074Y-76271371D02*
X74894360Y-76271371D01*
X74894360Y-76271371D02*
X74951503Y-76299942D01*
X75265788Y-76642800D02*
X75265788Y-76671371D01*
X75265788Y-76671371D02*
X75237217Y-76728514D01*
X75237217Y-76728514D02*
X75208645Y-76757085D01*
X75780074Y-76642800D02*
X75722931Y-76671371D01*
X75722931Y-76671371D02*
X75608645Y-76671371D01*
X75608645Y-76671371D02*
X75551502Y-76642800D01*
X75551502Y-76642800D02*
X75522931Y-76614228D01*
X75522931Y-76614228D02*
X75494359Y-76557085D01*
X75494359Y-76557085D02*
X75494359Y-76385657D01*
X75494359Y-76385657D02*
X75522931Y-76328514D01*
X75522931Y-76328514D02*
X75551502Y-76299942D01*
X75551502Y-76299942D02*
X75608645Y-76271371D01*
X75608645Y-76271371D02*
X75722931Y-76271371D01*
X75722931Y-76271371D02*
X75780074Y-76299942D01*
X76122931Y-76671371D02*
X76065788Y-76642800D01*
X76065788Y-76642800D02*
X76037217Y-76614228D01*
X76037217Y-76614228D02*
X76008645Y-76557085D01*
X76008645Y-76557085D02*
X76008645Y-76385657D01*
X76008645Y-76385657D02*
X76037217Y-76328514D01*
X76037217Y-76328514D02*
X76065788Y-76299942D01*
X76065788Y-76299942D02*
X76122931Y-76271371D01*
X76122931Y-76271371D02*
X76208645Y-76271371D01*
X76208645Y-76271371D02*
X76265788Y-76299942D01*
X76265788Y-76299942D02*
X76294360Y-76328514D01*
X76294360Y-76328514D02*
X76322931Y-76385657D01*
X76322931Y-76385657D02*
X76322931Y-76557085D01*
X76322931Y-76557085D02*
X76294360Y-76614228D01*
X76294360Y-76614228D02*
X76265788Y-76642800D01*
X76265788Y-76642800D02*
X76208645Y-76671371D01*
X76208645Y-76671371D02*
X76122931Y-76671371D01*
X76837217Y-76671371D02*
X76837217Y-76071371D01*
X76837217Y-76642800D02*
X76780074Y-76671371D01*
X76780074Y-76671371D02*
X76665788Y-76671371D01*
X76665788Y-76671371D02*
X76608645Y-76642800D01*
X76608645Y-76642800D02*
X76580074Y-76614228D01*
X76580074Y-76614228D02*
X76551502Y-76557085D01*
X76551502Y-76557085D02*
X76551502Y-76385657D01*
X76551502Y-76385657D02*
X76580074Y-76328514D01*
X76580074Y-76328514D02*
X76608645Y-76299942D01*
X76608645Y-76299942D02*
X76665788Y-76271371D01*
X76665788Y-76271371D02*
X76780074Y-76271371D01*
X76780074Y-76271371D02*
X76837217Y-76299942D01*
X77351502Y-76642800D02*
X77294359Y-76671371D01*
X77294359Y-76671371D02*
X77180074Y-76671371D01*
X77180074Y-76671371D02*
X77122931Y-76642800D01*
X77122931Y-76642800D02*
X77094359Y-76585657D01*
X77094359Y-76585657D02*
X77094359Y-76357085D01*
X77094359Y-76357085D02*
X77122931Y-76299942D01*
X77122931Y-76299942D02*
X77180074Y-76271371D01*
X77180074Y-76271371D02*
X77294359Y-76271371D01*
X77294359Y-76271371D02*
X77351502Y-76299942D01*
X77351502Y-76299942D02*
X77380074Y-76357085D01*
X77380074Y-76357085D02*
X77380074Y-76414228D01*
X77380074Y-76414228D02*
X77094359Y-76471371D01*
X77894360Y-76671371D02*
X77894360Y-76071371D01*
X77894360Y-76642800D02*
X77837217Y-76671371D01*
X77837217Y-76671371D02*
X77722931Y-76671371D01*
X77722931Y-76671371D02*
X77665788Y-76642800D01*
X77665788Y-76642800D02*
X77637217Y-76614228D01*
X77637217Y-76614228D02*
X77608645Y-76557085D01*
X77608645Y-76557085D02*
X77608645Y-76385657D01*
X77608645Y-76385657D02*
X77637217Y-76328514D01*
X77637217Y-76328514D02*
X77665788Y-76299942D01*
X77665788Y-76299942D02*
X77722931Y-76271371D01*
X77722931Y-76271371D02*
X77837217Y-76271371D01*
X77837217Y-76271371D02*
X77894360Y-76299942D01*
X78894360Y-76671371D02*
X78894360Y-76357085D01*
X78894360Y-76357085D02*
X78865788Y-76299942D01*
X78865788Y-76299942D02*
X78808645Y-76271371D01*
X78808645Y-76271371D02*
X78694360Y-76271371D01*
X78694360Y-76271371D02*
X78637217Y-76299942D01*
X78894360Y-76642800D02*
X78837217Y-76671371D01*
X78837217Y-76671371D02*
X78694360Y-76671371D01*
X78694360Y-76671371D02*
X78637217Y-76642800D01*
X78637217Y-76642800D02*
X78608645Y-76585657D01*
X78608645Y-76585657D02*
X78608645Y-76528514D01*
X78608645Y-76528514D02*
X78637217Y-76471371D01*
X78637217Y-76471371D02*
X78694360Y-76442800D01*
X78694360Y-76442800D02*
X78837217Y-76442800D01*
X78837217Y-76442800D02*
X78894360Y-76414228D01*
X79180074Y-76271371D02*
X79180074Y-76671371D01*
X79180074Y-76328514D02*
X79208645Y-76299942D01*
X79208645Y-76299942D02*
X79265788Y-76271371D01*
X79265788Y-76271371D02*
X79351502Y-76271371D01*
X79351502Y-76271371D02*
X79408645Y-76299942D01*
X79408645Y-76299942D02*
X79437217Y-76357085D01*
X79437217Y-76357085D02*
X79437217Y-76671371D01*
X79980074Y-76671371D02*
X79980074Y-76071371D01*
X79980074Y-76642800D02*
X79922931Y-76671371D01*
X79922931Y-76671371D02*
X79808645Y-76671371D01*
X79808645Y-76671371D02*
X79751502Y-76642800D01*
X79751502Y-76642800D02*
X79722931Y-76614228D01*
X79722931Y-76614228D02*
X79694359Y-76557085D01*
X79694359Y-76557085D02*
X79694359Y-76385657D01*
X79694359Y-76385657D02*
X79722931Y-76328514D01*
X79722931Y-76328514D02*
X79751502Y-76299942D01*
X79751502Y-76299942D02*
X79808645Y-76271371D01*
X79808645Y-76271371D02*
X79922931Y-76271371D01*
X79922931Y-76271371D02*
X79980074Y-76299942D01*
X80808645Y-76671371D02*
X80751502Y-76642800D01*
X80751502Y-76642800D02*
X80722931Y-76585657D01*
X80722931Y-76585657D02*
X80722931Y-76071371D01*
X81122931Y-76671371D02*
X81065788Y-76642800D01*
X81065788Y-76642800D02*
X81037217Y-76614228D01*
X81037217Y-76614228D02*
X81008645Y-76557085D01*
X81008645Y-76557085D02*
X81008645Y-76385657D01*
X81008645Y-76385657D02*
X81037217Y-76328514D01*
X81037217Y-76328514D02*
X81065788Y-76299942D01*
X81065788Y-76299942D02*
X81122931Y-76271371D01*
X81122931Y-76271371D02*
X81208645Y-76271371D01*
X81208645Y-76271371D02*
X81265788Y-76299942D01*
X81265788Y-76299942D02*
X81294360Y-76328514D01*
X81294360Y-76328514D02*
X81322931Y-76385657D01*
X81322931Y-76385657D02*
X81322931Y-76557085D01*
X81322931Y-76557085D02*
X81294360Y-76614228D01*
X81294360Y-76614228D02*
X81265788Y-76642800D01*
X81265788Y-76642800D02*
X81208645Y-76671371D01*
X81208645Y-76671371D02*
X81122931Y-76671371D01*
X81522931Y-76271371D02*
X81665788Y-76671371D01*
X81665788Y-76671371D02*
X81808645Y-76271371D01*
X82265788Y-76642800D02*
X82208645Y-76671371D01*
X82208645Y-76671371D02*
X82094360Y-76671371D01*
X82094360Y-76671371D02*
X82037217Y-76642800D01*
X82037217Y-76642800D02*
X82008645Y-76585657D01*
X82008645Y-76585657D02*
X82008645Y-76357085D01*
X82008645Y-76357085D02*
X82037217Y-76299942D01*
X82037217Y-76299942D02*
X82094360Y-76271371D01*
X82094360Y-76271371D02*
X82208645Y-76271371D01*
X82208645Y-76271371D02*
X82265788Y-76299942D01*
X82265788Y-76299942D02*
X82294360Y-76357085D01*
X82294360Y-76357085D02*
X82294360Y-76414228D01*
X82294360Y-76414228D02*
X82008645Y-76471371D01*
X82808646Y-76671371D02*
X82808646Y-76071371D01*
X82808646Y-76642800D02*
X82751503Y-76671371D01*
X82751503Y-76671371D02*
X82637217Y-76671371D01*
X82637217Y-76671371D02*
X82580074Y-76642800D01*
X82580074Y-76642800D02*
X82551503Y-76614228D01*
X82551503Y-76614228D02*
X82522931Y-76557085D01*
X82522931Y-76557085D02*
X82522931Y-76385657D01*
X82522931Y-76385657D02*
X82551503Y-76328514D01*
X82551503Y-76328514D02*
X82580074Y-76299942D01*
X82580074Y-76299942D02*
X82637217Y-76271371D01*
X82637217Y-76271371D02*
X82751503Y-76271371D01*
X82751503Y-76271371D02*
X82808646Y-76299942D01*
X83551503Y-76671371D02*
X83551503Y-76071371D01*
X83551503Y-76299942D02*
X83608646Y-76271371D01*
X83608646Y-76271371D02*
X83722931Y-76271371D01*
X83722931Y-76271371D02*
X83780074Y-76299942D01*
X83780074Y-76299942D02*
X83808646Y-76328514D01*
X83808646Y-76328514D02*
X83837217Y-76385657D01*
X83837217Y-76385657D02*
X83837217Y-76557085D01*
X83837217Y-76557085D02*
X83808646Y-76614228D01*
X83808646Y-76614228D02*
X83780074Y-76642800D01*
X83780074Y-76642800D02*
X83722931Y-76671371D01*
X83722931Y-76671371D02*
X83608646Y-76671371D01*
X83608646Y-76671371D02*
X83551503Y-76642800D01*
X84037217Y-76271371D02*
X84180074Y-76671371D01*
X84322931Y-76271371D02*
X84180074Y-76671371D01*
X84180074Y-76671371D02*
X84122931Y-76814228D01*
X84122931Y-76814228D02*
X84094360Y-76842800D01*
X84094360Y-76842800D02*
X84037217Y-76871371D01*
X85008646Y-76271371D02*
X85008646Y-76671371D01*
X85008646Y-76328514D02*
X85037217Y-76299942D01*
X85037217Y-76299942D02*
X85094360Y-76271371D01*
X85094360Y-76271371D02*
X85180074Y-76271371D01*
X85180074Y-76271371D02*
X85237217Y-76299942D01*
X85237217Y-76299942D02*
X85265789Y-76357085D01*
X85265789Y-76357085D02*
X85265789Y-76671371D01*
X85808646Y-76671371D02*
X85808646Y-76357085D01*
X85808646Y-76357085D02*
X85780074Y-76299942D01*
X85780074Y-76299942D02*
X85722931Y-76271371D01*
X85722931Y-76271371D02*
X85608646Y-76271371D01*
X85608646Y-76271371D02*
X85551503Y-76299942D01*
X85808646Y-76642800D02*
X85751503Y-76671371D01*
X85751503Y-76671371D02*
X85608646Y-76671371D01*
X85608646Y-76671371D02*
X85551503Y-76642800D01*
X85551503Y-76642800D02*
X85522931Y-76585657D01*
X85522931Y-76585657D02*
X85522931Y-76528514D01*
X85522931Y-76528514D02*
X85551503Y-76471371D01*
X85551503Y-76471371D02*
X85608646Y-76442800D01*
X85608646Y-76442800D02*
X85751503Y-76442800D01*
X85751503Y-76442800D02*
X85808646Y-76414228D01*
X86037217Y-76271371D02*
X86180074Y-76671371D01*
X86180074Y-76671371D02*
X86322931Y-76271371D01*
X86780074Y-76642800D02*
X86722931Y-76671371D01*
X86722931Y-76671371D02*
X86608646Y-76671371D01*
X86608646Y-76671371D02*
X86551503Y-76642800D01*
X86551503Y-76642800D02*
X86522931Y-76585657D01*
X86522931Y-76585657D02*
X86522931Y-76357085D01*
X86522931Y-76357085D02*
X86551503Y-76299942D01*
X86551503Y-76299942D02*
X86608646Y-76271371D01*
X86608646Y-76271371D02*
X86722931Y-76271371D01*
X86722931Y-76271371D02*
X86780074Y-76299942D01*
X86780074Y-76299942D02*
X86808646Y-76357085D01*
X86808646Y-76357085D02*
X86808646Y-76414228D01*
X86808646Y-76414228D02*
X86522931Y-76471371D01*
X87065789Y-76671371D02*
X87065789Y-76271371D01*
X87065789Y-76385657D02*
X87094360Y-76328514D01*
X87094360Y-76328514D02*
X87122932Y-76299942D01*
X87122932Y-76299942D02*
X87180074Y-76271371D01*
X87180074Y-76271371D02*
X87237217Y-76271371D01*
D11*
X59322666Y-73656985D02*
X59322666Y-74376652D01*
X59322666Y-74376652D02*
X59365000Y-74461318D01*
X59365000Y-74461318D02*
X59407333Y-74503652D01*
X59407333Y-74503652D02*
X59492000Y-74545985D01*
X59492000Y-74545985D02*
X59661333Y-74545985D01*
X59661333Y-74545985D02*
X59746000Y-74503652D01*
X59746000Y-74503652D02*
X59788333Y-74461318D01*
X59788333Y-74461318D02*
X59830666Y-74376652D01*
X59830666Y-74376652D02*
X59830666Y-73656985D01*
X60719666Y-74545985D02*
X60211666Y-74545985D01*
X60465666Y-74545985D02*
X60465666Y-73656985D01*
X60465666Y-73656985D02*
X60380999Y-73783985D01*
X60380999Y-73783985D02*
X60296333Y-73868652D01*
X60296333Y-73868652D02*
X60211666Y-73910985D01*
D12*
X55238095Y-70507200D02*
X55380952Y-70554819D01*
X55380952Y-70554819D02*
X55619047Y-70554819D01*
X55619047Y-70554819D02*
X55714285Y-70507200D01*
X55714285Y-70507200D02*
X55761904Y-70459580D01*
X55761904Y-70459580D02*
X55809523Y-70364342D01*
X55809523Y-70364342D02*
X55809523Y-70269104D01*
X55809523Y-70269104D02*
X55761904Y-70173866D01*
X55761904Y-70173866D02*
X55714285Y-70126247D01*
X55714285Y-70126247D02*
X55619047Y-70078628D01*
X55619047Y-70078628D02*
X55428571Y-70031009D01*
X55428571Y-70031009D02*
X55333333Y-69983390D01*
X55333333Y-69983390D02*
X55285714Y-69935771D01*
X55285714Y-69935771D02*
X55238095Y-69840533D01*
X55238095Y-69840533D02*
X55238095Y-69745295D01*
X55238095Y-69745295D02*
X55285714Y-69650057D01*
X55285714Y-69650057D02*
X55333333Y-69602438D01*
X55333333Y-69602438D02*
X55428571Y-69554819D01*
X55428571Y-69554819D02*
X55666666Y-69554819D01*
X55666666Y-69554819D02*
X55809523Y-69602438D01*
X56619047Y-70507200D02*
X56523809Y-70554819D01*
X56523809Y-70554819D02*
X56333333Y-70554819D01*
X56333333Y-70554819D02*
X56238095Y-70507200D01*
X56238095Y-70507200D02*
X56190476Y-70411961D01*
X56190476Y-70411961D02*
X56190476Y-70031009D01*
X56190476Y-70031009D02*
X56238095Y-69935771D01*
X56238095Y-69935771D02*
X56333333Y-69888152D01*
X56333333Y-69888152D02*
X56523809Y-69888152D01*
X56523809Y-69888152D02*
X56619047Y-69935771D01*
X56619047Y-69935771D02*
X56666666Y-70031009D01*
X56666666Y-70031009D02*
X56666666Y-70126247D01*
X56666666Y-70126247D02*
X56190476Y-70221485D01*
X57476190Y-70507200D02*
X57380952Y-70554819D01*
X57380952Y-70554819D02*
X57190476Y-70554819D01*
X57190476Y-70554819D02*
X57095238Y-70507200D01*
X57095238Y-70507200D02*
X57047619Y-70411961D01*
X57047619Y-70411961D02*
X57047619Y-70031009D01*
X57047619Y-70031009D02*
X57095238Y-69935771D01*
X57095238Y-69935771D02*
X57190476Y-69888152D01*
X57190476Y-69888152D02*
X57380952Y-69888152D01*
X57380952Y-69888152D02*
X57476190Y-69935771D01*
X57476190Y-69935771D02*
X57523809Y-70031009D01*
X57523809Y-70031009D02*
X57523809Y-70126247D01*
X57523809Y-70126247D02*
X57047619Y-70221485D01*
X58333333Y-70507200D02*
X58238095Y-70554819D01*
X58238095Y-70554819D02*
X58047619Y-70554819D01*
X58047619Y-70554819D02*
X57952381Y-70507200D01*
X57952381Y-70507200D02*
X57904762Y-70411961D01*
X57904762Y-70411961D02*
X57904762Y-70031009D01*
X57904762Y-70031009D02*
X57952381Y-69935771D01*
X57952381Y-69935771D02*
X58047619Y-69888152D01*
X58047619Y-69888152D02*
X58238095Y-69888152D01*
X58238095Y-69888152D02*
X58333333Y-69935771D01*
X58333333Y-69935771D02*
X58380952Y-70031009D01*
X58380952Y-70031009D02*
X58380952Y-70126247D01*
X58380952Y-70126247D02*
X57904762Y-70221485D01*
X59238095Y-70554819D02*
X59238095Y-69554819D01*
X59238095Y-70507200D02*
X59142857Y-70554819D01*
X59142857Y-70554819D02*
X58952381Y-70554819D01*
X58952381Y-70554819D02*
X58857143Y-70507200D01*
X58857143Y-70507200D02*
X58809524Y-70459580D01*
X58809524Y-70459580D02*
X58761905Y-70364342D01*
X58761905Y-70364342D02*
X58761905Y-70078628D01*
X58761905Y-70078628D02*
X58809524Y-69983390D01*
X58809524Y-69983390D02*
X58857143Y-69935771D01*
X58857143Y-69935771D02*
X58952381Y-69888152D01*
X58952381Y-69888152D02*
X59142857Y-69888152D01*
X59142857Y-69888152D02*
X59238095Y-69935771D01*
X60428572Y-70507200D02*
X60571429Y-70554819D01*
X60571429Y-70554819D02*
X60809524Y-70554819D01*
X60809524Y-70554819D02*
X60904762Y-70507200D01*
X60904762Y-70507200D02*
X60952381Y-70459580D01*
X60952381Y-70459580D02*
X61000000Y-70364342D01*
X61000000Y-70364342D02*
X61000000Y-70269104D01*
X61000000Y-70269104D02*
X60952381Y-70173866D01*
X60952381Y-70173866D02*
X60904762Y-70126247D01*
X60904762Y-70126247D02*
X60809524Y-70078628D01*
X60809524Y-70078628D02*
X60619048Y-70031009D01*
X60619048Y-70031009D02*
X60523810Y-69983390D01*
X60523810Y-69983390D02*
X60476191Y-69935771D01*
X60476191Y-69935771D02*
X60428572Y-69840533D01*
X60428572Y-69840533D02*
X60428572Y-69745295D01*
X60428572Y-69745295D02*
X60476191Y-69650057D01*
X60476191Y-69650057D02*
X60523810Y-69602438D01*
X60523810Y-69602438D02*
X60619048Y-69554819D01*
X60619048Y-69554819D02*
X60857143Y-69554819D01*
X60857143Y-69554819D02*
X61000000Y-69602438D01*
X61285715Y-69888152D02*
X61666667Y-69888152D01*
X61428572Y-69554819D02*
X61428572Y-70411961D01*
X61428572Y-70411961D02*
X61476191Y-70507200D01*
X61476191Y-70507200D02*
X61571429Y-70554819D01*
X61571429Y-70554819D02*
X61666667Y-70554819D01*
X62428572Y-69888152D02*
X62428572Y-70554819D01*
X62000001Y-69888152D02*
X62000001Y-70411961D01*
X62000001Y-70411961D02*
X62047620Y-70507200D01*
X62047620Y-70507200D02*
X62142858Y-70554819D01*
X62142858Y-70554819D02*
X62285715Y-70554819D01*
X62285715Y-70554819D02*
X62380953Y-70507200D01*
X62380953Y-70507200D02*
X62428572Y-70459580D01*
X63333334Y-70554819D02*
X63333334Y-69554819D01*
X63333334Y-70507200D02*
X63238096Y-70554819D01*
X63238096Y-70554819D02*
X63047620Y-70554819D01*
X63047620Y-70554819D02*
X62952382Y-70507200D01*
X62952382Y-70507200D02*
X62904763Y-70459580D01*
X62904763Y-70459580D02*
X62857144Y-70364342D01*
X62857144Y-70364342D02*
X62857144Y-70078628D01*
X62857144Y-70078628D02*
X62904763Y-69983390D01*
X62904763Y-69983390D02*
X62952382Y-69935771D01*
X62952382Y-69935771D02*
X63047620Y-69888152D01*
X63047620Y-69888152D02*
X63238096Y-69888152D01*
X63238096Y-69888152D02*
X63333334Y-69935771D01*
X63809525Y-70554819D02*
X63809525Y-69888152D01*
X63809525Y-69554819D02*
X63761906Y-69602438D01*
X63761906Y-69602438D02*
X63809525Y-69650057D01*
X63809525Y-69650057D02*
X63857144Y-69602438D01*
X63857144Y-69602438D02*
X63809525Y-69554819D01*
X63809525Y-69554819D02*
X63809525Y-69650057D01*
X64428572Y-70554819D02*
X64333334Y-70507200D01*
X64333334Y-70507200D02*
X64285715Y-70459580D01*
X64285715Y-70459580D02*
X64238096Y-70364342D01*
X64238096Y-70364342D02*
X64238096Y-70078628D01*
X64238096Y-70078628D02*
X64285715Y-69983390D01*
X64285715Y-69983390D02*
X64333334Y-69935771D01*
X64333334Y-69935771D02*
X64428572Y-69888152D01*
X64428572Y-69888152D02*
X64571429Y-69888152D01*
X64571429Y-69888152D02*
X64666667Y-69935771D01*
X64666667Y-69935771D02*
X64714286Y-69983390D01*
X64714286Y-69983390D02*
X64761905Y-70078628D01*
X64761905Y-70078628D02*
X64761905Y-70364342D01*
X64761905Y-70364342D02*
X64714286Y-70459580D01*
X64714286Y-70459580D02*
X64666667Y-70507200D01*
X64666667Y-70507200D02*
X64571429Y-70554819D01*
X64571429Y-70554819D02*
X64428572Y-70554819D01*
X58476191Y-71554819D02*
X59142857Y-72554819D01*
X59142857Y-71554819D02*
X58476191Y-72554819D01*
X59523810Y-72554819D02*
X59523810Y-71554819D01*
X59952381Y-72269104D02*
X60428571Y-72269104D01*
X59857143Y-72554819D02*
X60190476Y-71554819D01*
X60190476Y-71554819D02*
X60523809Y-72554819D01*
X61047619Y-71554819D02*
X61238095Y-71554819D01*
X61238095Y-71554819D02*
X61333333Y-71602438D01*
X61333333Y-71602438D02*
X61428571Y-71697676D01*
X61428571Y-71697676D02*
X61476190Y-71888152D01*
X61476190Y-71888152D02*
X61476190Y-72221485D01*
X61476190Y-72221485D02*
X61428571Y-72411961D01*
X61428571Y-72411961D02*
X61333333Y-72507200D01*
X61333333Y-72507200D02*
X61238095Y-72554819D01*
X61238095Y-72554819D02*
X61047619Y-72554819D01*
X61047619Y-72554819D02*
X60952381Y-72507200D01*
X60952381Y-72507200D02*
X60857143Y-72411961D01*
X60857143Y-72411961D02*
X60809524Y-72221485D01*
X60809524Y-72221485D02*
X60809524Y-71888152D01*
X60809524Y-71888152D02*
X60857143Y-71697676D01*
X60857143Y-71697676D02*
X60952381Y-71602438D01*
X60952381Y-71602438D02*
X61047619Y-71554819D01*
D10*
%TO.C,D4*%
X79699998Y-70400000D02*
X80599998Y-71300000D01*
X79699998Y-71300000D01*
X79699998Y-70400000D01*
G36*
X80599998Y-71300000D02*
G01*
X79699998Y-71300000D01*
X79699998Y-70400000D01*
X80599998Y-71300000D01*
G37*
%TO.C,U1*%
D13*
X51100000Y-63100000D02*
X51100000Y-80100000D01*
X53100000Y-82100000D02*
X66900000Y-82100000D01*
X55500000Y-59675970D02*
X64500000Y-59675970D01*
X55500000Y-67029270D02*
X55500000Y-59675970D01*
X64500000Y-59675970D02*
X64500000Y-67029270D01*
X64500000Y-67029270D02*
X55500000Y-67029270D01*
X66900000Y-61100910D02*
X53100000Y-61100910D01*
X68900000Y-80100000D02*
X68900000Y-63100000D01*
D14*
X51100000Y-63100000D02*
G75*
G02*
X53100000Y-61100000I2044612J-44612D01*
G01*
X53100000Y-82100000D02*
G75*
G02*
X51100000Y-80100000I44857J2044857D01*
G01*
X66900000Y-61100000D02*
G75*
G02*
X68900000Y-63100000I-44610J-2044610D01*
G01*
X68900000Y-80100000D02*
G75*
G02*
X66900000Y-82100000I-2000000J0D01*
G01*
D15*
X49127000Y-62800000D02*
G75*
G02*
X48873000Y-62800000I-127000J0D01*
G01*
X48873000Y-62800000D02*
G75*
G02*
X49127000Y-62800000I127000J0D01*
G01*
D16*
X51112285Y-63038295D02*
X51115333Y-62989527D01*
X51119397Y-62940506D01*
X51112285Y-63038295D01*
X68889492Y-80121574D02*
X68887713Y-80170850D01*
X68884665Y-80219618D01*
X68880601Y-80268639D01*
X68875268Y-80317407D01*
X68868664Y-80366175D01*
X68861044Y-80414690D01*
X68852153Y-80462950D01*
X68842248Y-80510955D01*
X68889492Y-80121574D01*
D17*
%TO.C,G\u002A\u002A\u002A*%
G36*
X73931238Y-96813605D02*
G01*
X73993902Y-96930757D01*
X74045199Y-97070049D01*
X74030696Y-97181117D01*
X73928679Y-97310471D01*
X73732023Y-97491680D01*
X73524325Y-97667965D01*
X73367127Y-97786682D01*
X73306581Y-97818667D01*
X73245081Y-97747413D01*
X73146834Y-97563848D01*
X73068983Y-97391142D01*
X72888359Y-96963617D01*
X73115679Y-96875710D01*
X73372567Y-96795925D01*
X73615157Y-96742312D01*
X73815972Y-96731545D01*
X73931238Y-96813605D01*
G37*
G36*
X51508459Y-96119175D02*
G01*
X51534421Y-96333189D01*
X51536025Y-96650440D01*
X51512555Y-97038661D01*
X51486471Y-97289500D01*
X51441887Y-97558409D01*
X51363001Y-97695226D01*
X51208045Y-97727961D01*
X50935254Y-97684623D01*
X50906333Y-97678549D01*
X50659588Y-97628164D01*
X50507650Y-97582338D01*
X50449168Y-97512167D01*
X50482787Y-97388750D01*
X50607155Y-97183183D01*
X50820918Y-96866564D01*
X50865243Y-96800817D01*
X51080452Y-96491439D01*
X51267140Y-96242713D01*
X51402602Y-96083717D01*
X51458850Y-96040667D01*
X51508459Y-96119175D01*
G37*
G36*
X74358050Y-98258323D02*
G01*
X74538466Y-98329784D01*
X74553733Y-98343600D01*
X74632719Y-98514789D01*
X74650730Y-98747764D01*
X74601910Y-98944196D01*
X74590537Y-98961667D01*
X74444160Y-99102199D01*
X74228849Y-99246148D01*
X73991434Y-99370263D01*
X73778746Y-99451294D01*
X73637616Y-99465990D01*
X73611486Y-99447744D01*
X73571551Y-99328835D01*
X73522365Y-99120315D01*
X73515969Y-99088667D01*
X73463906Y-98843091D01*
X73417378Y-98650665D01*
X73415097Y-98642457D01*
X73452771Y-98507813D01*
X73612813Y-98389766D01*
X73848314Y-98300626D01*
X74112363Y-98252708D01*
X74358050Y-98258323D01*
G37*
G36*
X47124982Y-90994079D02*
G01*
X48366985Y-91092823D01*
X49650273Y-91290003D01*
X50988108Y-91589012D01*
X52393754Y-91993246D01*
X53880472Y-92506099D01*
X55461526Y-93130967D01*
X57129333Y-93861711D01*
X57690497Y-94110004D01*
X58293853Y-94363160D01*
X58886484Y-94599868D01*
X59415470Y-94798818D01*
X59711667Y-94901610D01*
X61382908Y-95364497D01*
X63113524Y-95674091D01*
X64893236Y-95831445D01*
X66711763Y-95837610D01*
X68558828Y-95693639D01*
X70424150Y-95400582D01*
X72297450Y-94959492D01*
X74168449Y-94371421D01*
X76026868Y-93637420D01*
X77153000Y-93116973D01*
X77613039Y-92890148D01*
X78051803Y-92669900D01*
X78432529Y-92474964D01*
X78718455Y-92324073D01*
X78825085Y-92264861D01*
X79057238Y-92147706D01*
X79230571Y-92090872D01*
X79290752Y-92096766D01*
X79271514Y-92186749D01*
X79183123Y-92404734D01*
X79035631Y-92729057D01*
X78839089Y-93138054D01*
X78603551Y-93610060D01*
X78444167Y-93921317D01*
X78186823Y-94421295D01*
X77957692Y-94870565D01*
X77767615Y-95247527D01*
X77627437Y-95530585D01*
X77547999Y-95698139D01*
X77534000Y-95734358D01*
X77614804Y-95748954D01*
X77841773Y-95761982D01*
X78191741Y-95772843D01*
X78641541Y-95780939D01*
X79168009Y-95785673D01*
X79561003Y-95786667D01*
X80158023Y-95789841D01*
X80682190Y-95798827D01*
X81112232Y-95812818D01*
X81426880Y-95831011D01*
X81604859Y-95852598D01*
X81636581Y-95865263D01*
X81591562Y-95948998D01*
X81422267Y-96131897D01*
X81136325Y-96406944D01*
X80741365Y-96767119D01*
X80245017Y-97205404D01*
X79654911Y-97714781D01*
X79269667Y-98042594D01*
X78642420Y-98554187D01*
X77905784Y-99122410D01*
X77092845Y-99724076D01*
X76236689Y-100335999D01*
X75370400Y-100934995D01*
X74527064Y-101497877D01*
X73739768Y-102001461D01*
X73041596Y-102422560D01*
X72919667Y-102492514D01*
X71412310Y-103292315D01*
X69947125Y-103956385D01*
X68533313Y-104481330D01*
X67180078Y-104863755D01*
X65896621Y-105100266D01*
X65824631Y-105109421D01*
X65374787Y-105145760D01*
X64788805Y-105163383D01*
X64098746Y-105163158D01*
X63336667Y-105145950D01*
X62534630Y-105112628D01*
X61724693Y-105064058D01*
X60938916Y-105001105D01*
X60600667Y-104968204D01*
X59602328Y-104853394D01*
X58629237Y-104715939D01*
X57656339Y-104550383D01*
X56658582Y-104351270D01*
X55610913Y-104113146D01*
X54488278Y-103830554D01*
X53265625Y-103498039D01*
X51917900Y-103110144D01*
X51499000Y-102986194D01*
X50010027Y-102548233D01*
X48667789Y-102164598D01*
X48033992Y-101990414D01*
X56211846Y-101990414D01*
X56258719Y-102133149D01*
X56368317Y-102221860D01*
X56601585Y-102257062D01*
X56871846Y-102155124D01*
X57156153Y-101937276D01*
X57431561Y-101624748D01*
X57675124Y-101238771D01*
X57844646Y-100855908D01*
X57952424Y-100601112D01*
X58057267Y-100475795D01*
X58184380Y-100443333D01*
X58264855Y-100454439D01*
X58327915Y-100505450D01*
X58383225Y-100622901D01*
X58440453Y-100833330D01*
X58509265Y-101163274D01*
X58577603Y-101522833D01*
X58676393Y-102016760D01*
X58763826Y-102369613D01*
X58848208Y-102608508D01*
X58937842Y-102760560D01*
X58966544Y-102792833D01*
X59213763Y-102951104D01*
X59472703Y-102963727D01*
X59698265Y-102828760D01*
X59702163Y-102824501D01*
X59839370Y-102595383D01*
X59888535Y-102292986D01*
X59849875Y-101893744D01*
X59723610Y-101374087D01*
X59715836Y-101347374D01*
X59597506Y-100969715D01*
X59488215Y-100658454D01*
X62808645Y-100658454D01*
X62856043Y-101285312D01*
X62971905Y-101860377D01*
X63140442Y-102303917D01*
X63435183Y-102717599D01*
X63814314Y-103001372D01*
X64251114Y-103144199D01*
X64718864Y-103135043D01*
X64976655Y-103062360D01*
X65293918Y-102886128D01*
X65511598Y-102651646D01*
X65595881Y-102395825D01*
X65596000Y-102386275D01*
X65561889Y-102167949D01*
X65443203Y-102054633D01*
X65215410Y-102034714D01*
X64943094Y-102077189D01*
X64577187Y-102119069D01*
X64301249Y-102055795D01*
X64078698Y-101867430D01*
X63872958Y-101534040D01*
X63845565Y-101479062D01*
X63709493Y-101152160D01*
X63639667Y-100831265D01*
X63617936Y-100431523D01*
X63617820Y-100414429D01*
X63648444Y-99910915D01*
X63752328Y-99541934D01*
X63937748Y-99285651D01*
X64085644Y-99180192D01*
X64250762Y-99106000D01*
X64394724Y-99113866D01*
X64598373Y-99208688D01*
X64603756Y-99211583D01*
X64887702Y-99314936D01*
X65079542Y-99284379D01*
X65166827Y-99135432D01*
X65137104Y-98883615D01*
X65044233Y-98662562D01*
X64952795Y-98546274D01*
X66028935Y-98546274D01*
X66035591Y-98835064D01*
X66071263Y-99228491D01*
X66135924Y-99751239D01*
X66180990Y-100082336D01*
X66246856Y-100569527D01*
X66309447Y-101054527D01*
X66362028Y-101483753D01*
X66397865Y-101803627D01*
X66399978Y-101824603D01*
X66437216Y-102107637D01*
X66498837Y-102313029D01*
X66606180Y-102446127D01*
X66780584Y-102512278D01*
X67043388Y-102516826D01*
X67415933Y-102465118D01*
X67919557Y-102362502D01*
X68251052Y-102288365D01*
X68750845Y-102150542D01*
X69089856Y-101998359D01*
X69276365Y-101827052D01*
X69321333Y-101672613D01*
X69245446Y-101551713D01*
X69036772Y-101486791D01*
X68723793Y-101482186D01*
X68389107Y-101530564D01*
X68049570Y-101587342D01*
X67713353Y-101622762D01*
X67566142Y-101628667D01*
X67218144Y-101628667D01*
X67170206Y-101057167D01*
X67087551Y-100179839D01*
X66999275Y-99461932D01*
X66903247Y-98893569D01*
X66797338Y-98464873D01*
X66679419Y-98165968D01*
X66620203Y-98085708D01*
X68754210Y-98085708D01*
X68758803Y-98121794D01*
X68823085Y-98464804D01*
X68928572Y-98894107D01*
X69061253Y-99363919D01*
X69207116Y-99828457D01*
X69352152Y-100241937D01*
X69482349Y-100558576D01*
X69537458Y-100666192D01*
X69817930Y-100999277D01*
X70193137Y-101235428D01*
X70617856Y-101359188D01*
X71046866Y-101355101D01*
X71313807Y-101273315D01*
X71582888Y-101060024D01*
X71774658Y-100709855D01*
X71886003Y-100238142D01*
X71913812Y-99660220D01*
X71854972Y-98991422D01*
X71820373Y-98777688D01*
X71685049Y-98127750D01*
X71537274Y-97638827D01*
X71373186Y-97302820D01*
X71188922Y-97111628D01*
X70999729Y-97056667D01*
X70839368Y-97102194D01*
X70746355Y-97248683D01*
X70718808Y-97510997D01*
X70754847Y-97903998D01*
X70835130Y-98357176D01*
X70937058Y-98950818D01*
X70995871Y-99489600D01*
X71010301Y-99944655D01*
X70979080Y-100287119D01*
X70927021Y-100448899D01*
X70773747Y-100577766D01*
X70551171Y-100608193D01*
X70361784Y-100544903D01*
X70261569Y-100433537D01*
X70153183Y-100213902D01*
X70031217Y-99870982D01*
X69890259Y-99389763D01*
X69743173Y-98827932D01*
X69602467Y-98304288D01*
X69478341Y-97927888D01*
X69360737Y-97678752D01*
X69239595Y-97536900D01*
X69104858Y-97482352D01*
X69064578Y-97480000D01*
X68863457Y-97549498D01*
X68758954Y-97753598D01*
X68754210Y-98085708D01*
X66620203Y-98085708D01*
X66547359Y-97986977D01*
X66500862Y-97952870D01*
X66367277Y-97913065D01*
X66240313Y-97995770D01*
X66183362Y-98060880D01*
X66102792Y-98183867D01*
X66051326Y-98337437D01*
X66028935Y-98546274D01*
X64952795Y-98546274D01*
X64811660Y-98366783D01*
X64509783Y-98203807D01*
X64168030Y-98168865D01*
X63815830Y-98257188D01*
X63482610Y-98464006D01*
X63197799Y-98784552D01*
X63085680Y-98979949D01*
X62922618Y-99454490D01*
X62830555Y-100031086D01*
X62808645Y-100658454D01*
X59488215Y-100658454D01*
X59472871Y-100614754D01*
X59363470Y-100342647D01*
X59333534Y-100279621D01*
X59169878Y-99958828D01*
X59431032Y-99714247D01*
X59714050Y-99418464D01*
X59981238Y-99085424D01*
X60206902Y-98753254D01*
X60365345Y-98460081D01*
X60430871Y-98244033D01*
X60431333Y-98230029D01*
X60383763Y-98002096D01*
X60241968Y-97913462D01*
X60007327Y-97963656D01*
X59681216Y-98152210D01*
X59265011Y-98478658D01*
X58996983Y-98717930D01*
X58744942Y-98941416D01*
X58553960Y-99092246D01*
X58446007Y-99154316D01*
X58433476Y-99131000D01*
X58466355Y-98976356D01*
X58500589Y-98698443D01*
X58531121Y-98343207D01*
X58545477Y-98113582D01*
X58564229Y-97725716D01*
X58566020Y-97465708D01*
X58544067Y-97292391D01*
X58491587Y-97164596D01*
X58401795Y-97041155D01*
X58360625Y-96991749D01*
X58227201Y-96871813D01*
X72206197Y-96871813D01*
X72232777Y-97051008D01*
X72295878Y-97294844D01*
X72358744Y-97520599D01*
X72453537Y-97856302D01*
X72569429Y-98264105D01*
X72695594Y-98706157D01*
X72821205Y-99144609D01*
X72935433Y-99541610D01*
X73027453Y-99859311D01*
X73086435Y-100059862D01*
X73093595Y-100083500D01*
X73202162Y-100168532D01*
X73433869Y-100180771D01*
X73759946Y-100122242D01*
X74106488Y-100012172D01*
X74493442Y-99822599D01*
X74845111Y-99570011D01*
X75121384Y-99289471D01*
X75282150Y-99016041D01*
X75294996Y-98973233D01*
X75304451Y-98654589D01*
X75208451Y-98299840D01*
X75033556Y-97961652D01*
X74806326Y-97692690D01*
X74578878Y-97553293D01*
X74505975Y-97490595D01*
X74546893Y-97355571D01*
X74558525Y-97333352D01*
X74646987Y-97028810D01*
X74647369Y-96669908D01*
X74565473Y-96335144D01*
X74472489Y-96169721D01*
X74347000Y-96033181D01*
X74212163Y-95970787D01*
X74005299Y-95962918D01*
X73847196Y-95973963D01*
X73494347Y-96042971D01*
X73097796Y-96180702D01*
X72717829Y-96360564D01*
X72414733Y-96555963D01*
X72310135Y-96651969D01*
X72231593Y-96756414D01*
X72206197Y-96871813D01*
X58227201Y-96871813D01*
X58139444Y-96792928D01*
X57930674Y-96718015D01*
X57928092Y-96718000D01*
X57759106Y-96753707D01*
X57628897Y-96873821D01*
X57529951Y-97097829D01*
X57454754Y-97445220D01*
X57395791Y-97935480D01*
X57377479Y-98145908D01*
X57289107Y-98921350D01*
X57149293Y-99595341D01*
X56940045Y-100232428D01*
X56643370Y-100897155D01*
X56569816Y-101043291D01*
X56363341Y-101469191D01*
X56245369Y-101776996D01*
X56211846Y-101990414D01*
X48033992Y-101990414D01*
X47459588Y-101832553D01*
X46372730Y-101549362D01*
X45394519Y-101312289D01*
X44512260Y-101118597D01*
X43713257Y-100965550D01*
X42984815Y-100850412D01*
X42314239Y-100770447D01*
X41688832Y-100722918D01*
X41095899Y-100705089D01*
X40915667Y-100705172D01*
X40440425Y-100716210D01*
X39987317Y-100740037D01*
X39589483Y-100773586D01*
X39280063Y-100813789D01*
X39092198Y-100857579D01*
X39056513Y-100877265D01*
X39000880Y-101008403D01*
X38937578Y-101283633D01*
X38869629Y-101678051D01*
X38800054Y-102166753D01*
X38731875Y-102724835D01*
X38668115Y-103327393D01*
X38611794Y-103949524D01*
X38565934Y-104566323D01*
X38533557Y-105152887D01*
X38531305Y-105205833D01*
X38476190Y-106539333D01*
X37854428Y-106539333D01*
X37232667Y-106539333D01*
X37232667Y-106219305D01*
X37246451Y-105939304D01*
X37284721Y-105528519D01*
X37342854Y-105022979D01*
X37416227Y-104458713D01*
X37500216Y-103871749D01*
X37590198Y-103298118D01*
X37658773Y-102898667D01*
X37978850Y-101355002D01*
X38386465Y-99817589D01*
X38890089Y-98261970D01*
X38997273Y-97980259D01*
X43257895Y-97980259D01*
X43273954Y-98297066D01*
X43382523Y-98493318D01*
X43584334Y-98576574D01*
X43657791Y-98580667D01*
X43995208Y-98497618D01*
X44329710Y-98247790D01*
X44662475Y-97830156D01*
X44825650Y-97563248D01*
X44991910Y-97267852D01*
X45124231Y-97027875D01*
X45201423Y-96881937D01*
X45211766Y-96859515D01*
X45292283Y-96863855D01*
X45486026Y-96916189D01*
X45749216Y-97001087D01*
X46038072Y-97103120D01*
X46308814Y-97206856D01*
X46517662Y-97296866D01*
X46618600Y-97355346D01*
X46614666Y-97445300D01*
X46579987Y-97664174D01*
X46520812Y-97975644D01*
X46468683Y-98226875D01*
X46380489Y-98683379D01*
X46342351Y-99005019D01*
X46351811Y-99217914D01*
X46369445Y-99281340D01*
X46508942Y-99506635D01*
X46706360Y-99581121D01*
X46961205Y-99510810D01*
X48493333Y-99510810D01*
X48544903Y-99782228D01*
X48685702Y-99922397D01*
X48894863Y-99928725D01*
X49151521Y-99798622D01*
X49355140Y-99617833D01*
X49554335Y-99391369D01*
X49714303Y-99178148D01*
X49762257Y-99098706D01*
X49832366Y-98988334D01*
X49928042Y-98934657D01*
X50097049Y-98926218D01*
X50379243Y-98950736D01*
X50655240Y-98984200D01*
X50854668Y-99017043D01*
X50926642Y-99038420D01*
X50920872Y-99129996D01*
X50874071Y-99339905D01*
X50796040Y-99624957D01*
X50785334Y-99661184D01*
X50673912Y-100064541D01*
X50622041Y-100342782D01*
X50627371Y-100528403D01*
X50687551Y-100653901D01*
X50711600Y-100680400D01*
X50917124Y-100776108D01*
X51178468Y-100728104D01*
X51470499Y-100541409D01*
X51489360Y-100525106D01*
X51625244Y-100391603D01*
X51728026Y-100242894D01*
X51814470Y-100040450D01*
X51901337Y-99745739D01*
X51946908Y-99560133D01*
X53066585Y-99560133D01*
X53118008Y-100243349D01*
X53273101Y-100808375D01*
X53528457Y-101248407D01*
X53880669Y-101556643D01*
X54123667Y-101670830D01*
X54501124Y-101773960D01*
X54799083Y-101774379D01*
X55073538Y-101670940D01*
X55108922Y-101650686D01*
X55346290Y-101426119D01*
X55434476Y-101133012D01*
X55422035Y-100983679D01*
X55325482Y-100863063D01*
X55078631Y-100767752D01*
X54978777Y-100744149D01*
X54634165Y-100631516D01*
X54403821Y-100450978D01*
X54270034Y-100175418D01*
X54215096Y-99777721D01*
X54211268Y-99568987D01*
X54287661Y-98860537D01*
X54497089Y-98145131D01*
X54819828Y-97488879D01*
X54842817Y-97452117D01*
X55078886Y-97148970D01*
X55307793Y-97008877D01*
X55545428Y-97027136D01*
X55779650Y-97174868D01*
X56021109Y-97345427D01*
X56204583Y-97383343D01*
X56369904Y-97294195D01*
X56403619Y-97262286D01*
X56521504Y-97035424D01*
X56526134Y-96745802D01*
X56431832Y-96442005D01*
X56252920Y-96172617D01*
X56031438Y-95999766D01*
X55697087Y-95899002D01*
X55292760Y-95878911D01*
X54897126Y-95939062D01*
X54709951Y-96007036D01*
X54317789Y-96277850D01*
X53956583Y-96688613D01*
X53639491Y-97210877D01*
X53379670Y-97816198D01*
X53190277Y-98476128D01*
X53084469Y-99162222D01*
X53066585Y-99560133D01*
X51946908Y-99560133D01*
X51995815Y-99360940D01*
X52196985Y-98406070D01*
X52323221Y-97552075D01*
X52380800Y-96751241D01*
X52385980Y-96394373D01*
X52355911Y-95726506D01*
X52268178Y-95212522D01*
X52120333Y-94846226D01*
X51909929Y-94621423D01*
X51650619Y-94533351D01*
X51374644Y-94576387D01*
X51101201Y-94766638D01*
X50822549Y-95111364D01*
X50565186Y-95551506D01*
X50424116Y-95817408D01*
X50219675Y-96197610D01*
X49970271Y-96658137D01*
X49694312Y-97165011D01*
X49410208Y-97684257D01*
X49368142Y-97760902D01*
X49108966Y-98239985D01*
X48880287Y-98676208D01*
X48694181Y-99045415D01*
X48562724Y-99323446D01*
X48497995Y-99486146D01*
X48493333Y-99510810D01*
X46961205Y-99510810D01*
X46974007Y-99507278D01*
X47112900Y-99431059D01*
X47332512Y-99264956D01*
X47500602Y-99084206D01*
X47509109Y-99071542D01*
X47581424Y-98915461D01*
X47689972Y-98624785D01*
X47825722Y-98228089D01*
X47979645Y-97753951D01*
X48142710Y-97230944D01*
X48305887Y-96687647D01*
X48460145Y-96152635D01*
X48596453Y-95654484D01*
X48632269Y-95517377D01*
X48751335Y-95007475D01*
X48806478Y-94627511D01*
X48796366Y-94350081D01*
X48719668Y-94147780D01*
X48575050Y-93993206D01*
X48557528Y-93979858D01*
X48394510Y-93872658D01*
X48264207Y-93855201D01*
X48084305Y-93922523D01*
X48030225Y-93948062D01*
X47889915Y-94031865D01*
X47764137Y-94155883D01*
X47632050Y-94350093D01*
X47472810Y-94644471D01*
X47297951Y-95001241D01*
X47126833Y-95357164D01*
X46983772Y-95652334D01*
X46883707Y-95856092D01*
X46841580Y-95937778D01*
X46841554Y-95937811D01*
X46757749Y-95925444D01*
X46567569Y-95865344D01*
X46320430Y-95776129D01*
X46065747Y-95676423D01*
X45852937Y-95584846D01*
X45731414Y-95520020D01*
X45730048Y-95518963D01*
X45676346Y-95396285D01*
X45699295Y-95155334D01*
X45713313Y-95089068D01*
X45748639Y-94717168D01*
X45711402Y-94307819D01*
X45614433Y-93907331D01*
X45470561Y-93562014D01*
X45292617Y-93318177D01*
X45204863Y-93253908D01*
X44919164Y-93162815D01*
X44678890Y-93223652D01*
X44480075Y-93440297D01*
X44318756Y-93816631D01*
X44217049Y-94220356D01*
X43904384Y-95576862D01*
X43526048Y-96875496D01*
X43500380Y-96954733D01*
X43333614Y-97535334D01*
X43257895Y-97980259D01*
X38997273Y-97980259D01*
X39498195Y-96663691D01*
X40219251Y-94998296D01*
X40870106Y-93627667D01*
X41195991Y-92971095D01*
X41460959Y-92454725D01*
X41674508Y-92064757D01*
X41846136Y-91787395D01*
X41985343Y-91608840D01*
X42101626Y-91515296D01*
X42204484Y-91492964D01*
X42303415Y-91528048D01*
X42311954Y-91533239D01*
X42440583Y-91579254D01*
X42619350Y-91564886D01*
X42895364Y-91484964D01*
X42963384Y-91461699D01*
X43493004Y-91294812D01*
X44011905Y-91171345D01*
X44565601Y-91084022D01*
X45199608Y-91025565D01*
X45911000Y-90990376D01*
X47124982Y-90994079D01*
G37*
D10*
%TO.C,D1*%
X31387498Y-65200000D02*
X32287498Y-66100000D01*
X31387498Y-66100000D01*
X31387498Y-65200000D01*
G36*
X32287498Y-66100000D02*
G01*
X31387498Y-66100000D01*
X31387498Y-65200000D01*
X32287498Y-66100000D01*
G37*
%TO.C,D3*%
X79699998Y-65350000D02*
X80599998Y-66250000D01*
X79699998Y-66250000D01*
X79699998Y-65350000D01*
G36*
X80599998Y-66250000D02*
G01*
X79699998Y-66250000D01*
X79699998Y-65350000D01*
X80599998Y-66250000D01*
G37*
%TO.C,D2*%
X31387498Y-70250000D02*
X32287498Y-71150000D01*
X31387498Y-71150000D01*
X31387498Y-70250000D01*
G36*
X32287498Y-71150000D02*
G01*
X31387498Y-71150000D01*
X31387498Y-70250000D01*
X32287498Y-71150000D01*
G37*
%TD*%
M02*
