M48
; DRILL file KiCad 10.0.3 date 2026-06-12T15:09:05
; FORMAT={-:-/ absolute / metric / decimal}
; #@! TF.CreationDate,2026-06-12T15:09:05+03:00
; #@! TF.GenerationSoftware,Kicad,Pcbnew,10.0.3
; #@! TF.FileFunction,NonPlated,1,2,NPTH
FMAT,2
METRIC
; #@! TA.AperFunction,NonPlated,NPTH,ComponentDrill
T1C1.702
; #@! TA.AperFunction,NonPlated,NPTH,ComponentDrill
T2C3.000
; #@! TA.AperFunction,NonPlated,NPTH,ComponentDrill
T3C3.988
%
G90
G05
T1
X34.92Y-89.75
X35.17Y-108.75
X45.08Y-89.75
X45.33Y-108.75
X54.17Y-89.5
X54.17Y-108.75
X64.33Y-89.5
X64.33Y-108.75
X73.42Y-89.75
X73.42Y-108.75
X83.58Y-89.75
X83.58Y-108.75
T2
X36.44Y-111.29
X37.46Y-84.67
X42.79Y-113.83
X43.81Y-87.21
X55.44Y-111.29
X56.71Y-84.42
X61.79Y-113.83
X63.06Y-86.96
X74.69Y-111.29
X75.96Y-84.67
X81.04Y-113.83
X82.31Y-87.21
T3
X40.0Y-89.75
X40.25Y-108.75
X59.25Y-89.5
X59.25Y-108.75
X78.5Y-89.75
X78.5Y-108.75
M30
