M48
; DRILL file KiCad 10.0.3 date 2026-06-12T15:09:05
; FORMAT={-:-/ absolute / metric / decimal}
; #@! TF.CreationDate,2026-06-12T15:09:05+03:00
; #@! TF.GenerationSoftware,Kicad,Pcbnew,10.0.3
; #@! TF.FileFunction,Plated,1,2,PTH
FMAT,2
METRIC
; #@! TA.AperFunction,Plated,PTH,ViaDrill
T1C0.300
; #@! TA.AperFunction,Plated,PTH,ComponentDrill
T2C1.000
%
G90
G05
T1
X31.0Y-64.0
X42.0Y-67.0
X42.901Y-64.401
X44.5Y-64.5
X48.4Y-69.0
X48.4Y-73.0
X54.5Y-72.5
X58.5Y-74.0
X59.24Y-77.74
X59.5Y-73.4
X62.434Y-71.434
X63.0Y-72.0
X65.2Y-66.5
X65.296Y-64.39
X65.934Y-62.63
X66.0Y-64.77
X66.0Y-66.5
X67.75Y-107.75
X72.04Y-66.46
X73.75Y-74.75
X74.5Y-68.5
X80.148Y-61.6
T2
X52.375Y-63.98
X52.375Y-66.52
X52.375Y-69.06
X52.375Y-71.6
X52.375Y-74.14
X52.375Y-76.68
X52.375Y-79.22
X67.625Y-63.98
X67.625Y-66.52
X67.625Y-69.06
X67.625Y-71.6
X67.625Y-74.14
X67.625Y-76.68
X67.625Y-79.22
X77.5Y-63.58
X77.5Y-66.12
X77.5Y-68.66
X77.5Y-71.2
M30
